# xmcd CD database file
#
# Track frame offsets:
#	150
#	20663
#	42288
#	65210
#	86473
#	107070
#	129195
#
# Disc length: 1830 seconds
#
# Revision: 0
# Processed by: cddbd v1.5.1PL0 Copyright (c) Steve Scherf et al.
# Submitted via: CDex 1.51
#
DISCID=58072407
DTITLE=中村由利子 - ドリーミー・ウィンター〜もう一つの贈りもの
DYEAR=1994
DGENRE=New Age
TTITLE0=ファースト・クリスマス
TTITLE1=恋人たちの時
TTITLE2=雪の伝説
TTITLE3=フォー・ユア・グロリアス・デイ
TTITLE4=ウィンター・ロマンス
TTITLE5=アイル・ビー・オールウェイズ
TTITLE6=ファースト・クリスマス（リプライズ）
EXTD=YEAR: 1994
EXTT0=
EXTT1=
EXTT2=
EXTT3=
EXTT4=
EXTT5=
EXTT6=
PLAYORDER=
